<svg id="Layer_1" data-name="Layer 1" xmlns="http://www.w3.org/2000/svg" viewBox="0 0 512 512"><defs><style>.cls-1{fill:#006eb8;}.cls-2{fill:#fff;}</style></defs><circle class="cls-1" cx="256" cy="256" r="254"/><path class="cls-2" d="M380.62,131.38a176.24,176.24,0,1,0,0,249.24A176.15,176.15,0,0,0,380.62,131.38Zm-7.37,224.11A177.09,177.09,0,0,0,346.93,336a285.37,285.37,0,0,0,10.63-68.77h51.81a152.34,152.34,0,0,1-36.12,88.26ZM102.63,267.23h51.81A285.37,285.37,0,0,0,165.07,336a177.09,177.09,0,0,0-26.32,19.49A152.34,152.34,0,0,1,102.63,267.23ZM138.75,156.5A176.46,176.46,0,0,0,165.07,176a285.37,285.37,0,0,0-10.63,68.77H102.63A152.39,152.39,0,0,1,138.75,156.5Zm106,21.82a152.59,152.59,0,0,1-52.35-13.26c9.52-24.52,27.08-53.93,52.35-61.22Zm0,22.5v44H176.91a265,265,0,0,1,8.52-58.23A175.15,175.15,0,0,0,244.77,200.82Zm0,66.41v43.95a174.92,174.92,0,0,0-59.34,14.28,265,265,0,0,1-8.52-58.23Zm0,66.45v74.48c-25.27-7.29-42.83-36.69-52.35-61.22A152.59,152.59,0,0,1,244.77,333.68Zm22.46,0a152.59,152.59,0,0,1,52.35,13.26c-9.52,24.52-27.08,53.93-52.35,61.22Zm0-22.5V267.23h67.86a265,265,0,0,1-8.52,58.23,174.92,174.92,0,0,0-59.34-14.28Zm0-66.41v-44a175.15,175.15,0,0,0,59.34-14.28,265,265,0,0,1,8.52,58.23Zm0-66.45V103.84c25.27,7.29,42.83,36.7,52.35,61.22A152.59,152.59,0,0,1,267.23,178.32Zm50.45-63.27a153.23,153.23,0,0,1,39.81,25.43,155.07,155.07,0,0,1-18.07,13.71A169.11,169.11,0,0,0,317.68,115.05Zm-145.1,39.14a155.07,155.07,0,0,1-18.07-13.71,153.23,153.23,0,0,1,39.81-25.43,169.11,169.11,0,0,0-21.74,39.14Zm0,203.62A169.11,169.11,0,0,0,194.32,397a153.23,153.23,0,0,1-39.81-25.43A155.07,155.07,0,0,1,172.58,357.81Zm166.84,0a155.07,155.07,0,0,1,18.07,13.71A153.49,153.49,0,0,1,317.68,397a169.11,169.11,0,0,0,21.74-39.14Zm18.14-113A285.37,285.37,0,0,0,346.93,176a176.46,176.46,0,0,0,26.32-19.5,152.39,152.39,0,0,1,36.12,88.27Z"/></svg>